<?xml version="1.0"?>
<svg xmlns="http://www.w3.org/2000/svg" height="512px" viewBox="-24 0 480 480" width="512px" class=""><g><path d="m418.335938 328.414062-50.335938-44.039062v-252.375h-32v-32h-336v400h32v32h261.601562c1.460938 4.332031 3.671876 8.378906 6.527344 11.953125l11.871094 14.847656v21.199219h16v-26.800781l-15.367188-19.246094c-.480468-.609375-.800781-1.3125-1.191406-1.953125h22.253906c1.433594 4.34375 3.617188 8.40625 6.449219 12l13.597657 17.007812 12.496093-10-13.597656-17c-7.738281-9.78125-6.753906-23.847656 2.269531-32.457031 4.578125-4.335937 7.210938-10.339843 7.300782-16.644531.085937-6.304688-2.378907-12.378906-6.835938-16.84375l-18.960938-18.949219c-1.5-1.5-2.34375-3.539062-2.34375-5.660156 0-2.125.84375-4.160156 2.34375-5.660156l5.675782-5.671875 9.910156 9.910156v1.96875h1.96875l31.015625 31.015625 11.3125-11.3125-28.296875-28.296875v-29.804688l39.808594 34.832032c5.214844 4.5625 8.199218 11.15625 8.191406 18.085937v121.480469h16v-121.480469c0-11.535156-4.980469-22.507812-13.664062-30.105469zm-402.335938 55.585938v-368h304v16h-203.3125l-84.6875 84.6875v267.3125zm96-324.6875v52.6875h-52.6875zm218.769531 261.488281-5.679687 5.671875c-9.371094 9.371094-9.371094 24.5625 0 33.933594l18.957031 18.960938c1.410156 1.414062 2.183594 3.335937 2.152344 5.328124-.035157 1.996094-.875 3.890626-2.328125 5.257813-7.191406 6.851563-11.566406 16.140625-12.269532 26.046875h-283.601562v-288h80v-80h224v271.664062c-6.34375-5.058593-15.464844-4.570312-21.230469 1.136719zm0 0" data-original="#000000" class="active-path" data-old_color="#000000" fill="#FFFFFF"/><path d="m200 264c24.414062 0 40 9.480469 40 16h16c0-16.679688-20.152344-29.601562-48-31.664062v-24.335938h-16v24.335938c-27.847656 2.089843-48 14.984374-48 31.664062 0 18.238281 24.078125 32 56 32 24.414062 0 40 9.480469 40 16s-15.585938 16-40 16-40-9.480469-40-16h-16c0 16.679688 20.152344 29.601562 48 31.664062v24.335938h16v-24.335938c27.847656-2.089843 48-14.984374 48-31.664062 0-18.238281-24.078125-32-56-32-24.414062 0-40-9.480469-40-16s15.585938-16 40-16zm0 0" data-original="#000000" class="active-path" data-old_color="#000000" fill="#FFFFFF"/><path d="m144 80h16v16h-16zm0 0" data-original="#000000" class="active-path" data-old_color="#000000" fill="#FFFFFF"/><path d="m176 80h144v16h-144zm0 0" data-original="#000000" class="active-path" data-old_color="#000000" fill="#FFFFFF"/><path d="m144 112h16v16h-16zm0 0" data-original="#000000" class="active-path" data-old_color="#000000" fill="#FFFFFF"/><path d="m176 112h144v16h-144zm0 0" data-original="#000000" class="active-path" data-old_color="#000000" fill="#FFFFFF"/><path d="m80 208h240v-64h-240zm16-48h208v32h-208zm0 0" data-original="#000000" class="active-path" data-old_color="#000000" fill="#FFFFFF"/></g> </svg>
